<?xml version="1.0" standalone="no"?><!DOCTYPE svg PUBLIC "-//W3C//DTD SVG 1.1//EN" "http://www.w3.org/Graphics/SVG/1.1/DTD/svg11.dtd">
<svg t="1506319961436" class="icon" style="" viewBox="0 0 1024 1024" version="1.1" xmlns="http://www.w3.org/2000/svg" p-id="2598" xmlns:xlink="http://www.w3.org/1999/xlink" width="200" height="200">
	<defs>
		<style type="text/css">
		</style>
	</defs>
	<path d="M113.777778 511.544889C113.777778 448.967111 164.807111 398.222222 227.896889 398.222222h568.206222C859.136 398.222222 910.222222 449.422222 910.222222 511.544889v399.132444c0 62.577778-51.029333 113.322667-114.119111 113.322667H227.896889C164.864 1024 113.777778 972.8 113.777778 910.677333V511.544889z m56.888889 0.341333v398.449778A56.888889 56.888889 0 0 0 227.669333 967.111111h568.661334c31.061333 0 57.002667-25.429333 57.002666-56.775111V511.886222A56.888889 56.888889 0 0 0 796.330667 455.111111H227.669333C196.608 455.111111 170.666667 480.540444 170.666667 511.886222zM455.111111 625.777778c0-31.402667 25.258667-56.888889 56.888889-56.888889 31.402667 0 56.888889 25.258667 56.888889 56.888889v170.666666c0 31.402667-25.258667 56.888889-56.888889 56.888889-31.402667 0-56.888889-25.258667-56.888889-56.888889v-170.666666zM739.555556 284.444444v-56.490666A227.726222 227.726222 0 0 0 512 0C386.56 0 284.444444 102.058667 284.444444 227.953778V398.222222h56.888889V227.896889A170.951111 170.951111 0 0 1 512 56.888889c94.264889 0 170.666667 76.743111 170.666667 171.008V284.444444h56.888889z" p-id="2599" fill="#333333"></path>
</svg>